<?xml version="1.0" encoding="UTF-8"?><svg id="a" xmlns="http://www.w3.org/2000/svg" viewBox="0 0 841.89 595.28"><defs><style>.b{fill:#33cc6b;}</style></defs><path class="b" d="M575.83,359.5v.12c-1.98-6.39-32.97-83.95-52.48-132.55h-38.32l68.38,166.05h44.87l68.38-166.05h-38.32c-19.54,48.55-50.53,126.03-52.52,132.42Z"/><rect class="b" x="676.62" y="227.08" width="34.35" height="166.05"/><path class="b" d="M693.81,209.4c12.66,0,22.94-10.28,22.94-22.94s-10.28-22.94-22.94-22.94-22.94,10.28-22.94,22.94,10.28,22.94,22.94,22.94Z"/><path class="b" d="M375.32,335.79l121.34-46.49c-15.94-60.04-68.17-77.52-115.47-55.67-35.44,17.96-58.91,64.57-35.24,113.08,15.17,31.11,46.2,48.96,76.1,48.39,49.4,.04,70.84-37.71,75.54-59.39l-28.16-11.17c-6.51,43.05-74.53,56.08-94.11,11.25Zm19.62-76.39c32.41-16.18,57.98,6.47,61.38,15.01-30.3,11.57-87.59,33.46-87.59,33.46-2.99-21.97,10.88-41.79,26.22-48.47Z"/><path class="b" d="M329.39,282.71l-26.7-20.55c-.45,.77-.89,1.58-1.34,2.35-12.74,21.81-33.74,41.84-57.57,55.02-15.21,8.42-37.47,17.28-62.63,16.47,19.1-47.62,43.41-108.55,45.15-114.18v-.12c1.25,4.09,14.36,37.22,28.77,73.31,10.16-7.81,19.26-16.95,26.62-26.74l-33.66-81.77h-43.41l-58.22,141.37c-6.59-2.87-13.72-6.76-19.83-11.69l-13.07,31.76c6.64,4.37,13.55,7.97,20.19,10.84l-14.16,34.39h38.72s3.97-9.79,9.95-24.72c5.38,.69,10.84,1.01,16.31,1.01,25.04,0,50.74-7,75.54-20.72,4.53-2.51,9.02-5.26,13.35-8.17,11.77,29.37,21.12,52.56,21.12,52.56h38.72l-31.23-75.86c10.68-10.6,20.07-22.33,27.39-34.55Z"/></svg>